<svg width="100" height="115" viewBox="0 0 100 115" fill="none" xmlns="http://www.w3.org/2000/svg">
<path d="M100 16.3266V26.5306C100 35.523 77.6042 42.8571 50 42.8571C22.3958 42.8571 0 35.523 0 26.5306V16.3266C0 7.33415 22.3958 0 50 0C77.6042 0 100 7.33415 100 16.3266ZM100 39.2857V62.2449C100 71.2373 77.6042 78.5714 50 78.5714C22.3958 78.5714 0 71.2373 0 62.2449V39.2857C10.7422 46.6837 30.4036 50.1277 50 50.1277C69.5964 50.1277 89.2576 46.6837 100 39.2857ZM100 75V97.9592C100 106.952 77.6042 114.286 50 114.286C22.3958 114.286 0 106.952 0 97.9592V75C10.7422 82.398 30.4036 85.842 50 85.842C69.5964 85.842 89.2576 82.398 100 75Z" fill="white"/>
</svg>
