<svg width="137" height="46" viewBox="0 0 137 46" fill="none" xmlns="http://www.w3.org/2000/svg">
<path d="M13.4888 5.60645V7.4375H4.3335V13.2969H13.0615V15.1279H4.3335V21.2314H13.6719V23.0625H2.0752V5.60645H13.4888ZM19.3481 5.60645V21.2314H28.479V23.0625H17.0898V5.60645H19.3481ZM33.8013 5.60645V23.0625H31.543V5.60645H33.8013ZM38.9038 23.0625H36.5601L43.9697 5.60645H46.4722L53.9185 23.0625H51.416L49.1577 17.5693H43.3838L44.0063 15.7383H48.4009L45.1416 7.82812L38.9038 23.0625ZM56.2988 23.0625V5.60645H58.5571L69.2383 19.6689V5.60645H71.3745V23.0625H69.1162L58.4351 8.87793V23.0625H56.2988Z" fill="white"/>
<path d="M31.6489 40.9375H29.3052L36.7148 23.4814H39.2173L46.6636 40.9375H44.1611L41.9028 35.4443H36.1289L36.7515 33.6133H41.146L37.8867 25.7031L31.6489 40.9375ZM49.0439 40.9375V23.4814H56.4902C59.8105 23.4814 61.4707 24.8771 61.4707 27.6685C61.4707 29.939 59.8472 31.6195 56.6001 32.71L62.5938 40.9375H59.6152L54.061 33.0884V31.6113C57.3976 31.0824 59.0659 29.8006 59.0659 27.7661C59.0659 26.1548 58.1382 25.3491 56.2827 25.3491H51.3022V40.9375H49.0439ZM64.9863 40.9375V23.4814H67.2446L77.9258 37.5439V23.4814H80.062V40.9375H77.8037L67.1226 26.7529V40.9375H64.9863ZM84.7983 40.9375H82.4546L89.8643 23.4814H92.3667L99.813 40.9375H97.3105L95.0522 35.4443H89.2783L89.9009 33.6133H94.2954L91.0361 25.7031L84.7983 40.9375ZM102.071 34.1992V23.4814H104.33V34.1992C104.33 37.5521 105.998 39.2285 109.334 39.2285C112.671 39.2285 114.339 37.5521 114.339 34.1992V23.4814H116.598V34.1992C116.598 38.7728 114.177 41.0596 109.334 41.0596C104.492 41.0596 102.071 38.7728 102.071 34.1992ZM126.974 39.1064C131.246 39.1064 133.382 36.6488 133.382 31.7334C133.382 27.4528 131.246 25.3125 126.974 25.3125H122.884V39.1064H126.974ZM120.626 40.9375V23.4814H126.974C132.752 23.4814 135.641 26.2321 135.641 31.7334C135.641 37.8695 132.752 40.9375 126.974 40.9375H120.626Z" fill="white"/>
</svg>
