<svg width="100" height="100" viewBox="0 0 100 100" fill="none" xmlns="http://www.w3.org/2000/svg">
<path d="M43.7012 25.5372L30.1992 3.03517C29.644 2.1095 28.8586 1.3434 27.9193 0.811494C26.9801 0.279589 25.9192 1.32525e-05 24.8398 0H3.13073C0.601423 0 -0.87905 2.84571 0.570173 4.91798L22.3027 35.9649C28.1074 30.5411 35.4902 26.8184 43.7012 25.5372ZM96.8693 0H75.1602C72.9649 0 70.9297 1.15235 69.8008 3.03517L56.2988 25.5372C64.5098 26.8184 71.8926 30.5411 77.6973 35.963L99.4298 4.91798C100.879 2.84571 99.3986 0 96.8693 0ZM50 31.2501C31.0156 31.2501 15.6249 46.6408 15.6249 65.6252C15.6249 84.6096 31.0156 100 50 100C68.9844 100 84.3751 84.6096 84.3751 65.6252C84.3751 46.6408 68.9844 31.2501 50 31.2501ZM68.0704 61.965L60.6621 69.1838L62.4141 79.383C62.7266 81.2112 60.8008 82.6077 59.1621 81.7444L50 76.9299L40.8398 81.7444C39.1992 82.6135 37.2754 81.2092 37.5879 79.383L39.3398 69.1838L31.9316 61.965C30.5996 60.6681 31.3359 58.4045 33.1718 58.1388L43.4121 56.6466L47.9883 47.3654C48.4004 46.5294 49.1973 46.1173 49.9961 46.1173C50.7988 46.1173 51.6016 46.5353 52.0137 47.3654L56.5899 56.6466L66.8301 58.1388C68.6661 58.4045 69.4024 60.6681 68.0704 61.965Z" fill="white"/>
</svg>
